<svg width="1001" height="758" xmlns="http://www.w3.org/2000/svg" xmlns:xlink="http://www.w3.org/1999/xlink">
 <style type="text/css">.st0{opacity:0.5;fill:#618bb0;enable-background:new    ;}
	.st1{fill:#618bb0;}
	.st2{fill:none;stroke:#535461;stroke-miterlimit:10;}
	.st3{opacity:0.1;enable-background:new    ;}
	.st4{fill:url(#SVGID_1_);}
	.st5{fill:#2d2e34;}
	.st6{fill:none;stroke:#535461;stroke-width:2;stroke-miterlimit:10;}
	.st7{fill:#31516d;}
	.st8{fill:url(#SVGID_2_);}
	.st9{fill:#FEC3BE;}
	.st10{fill:#ff6b57;}
	.st11{fill:#2f2e41;}
	.st12{opacity:0.9;fill:#2f2e41;enable-background:new    ;}
	.st13{fill:#ff6b57;}
	.st14{fill:#0f0f0f;}
	.st15{fill:none;stroke:#D0D9F1;stroke-width:4;stroke-miterlimit:10;stroke-dasharray:10,15;}
	.st16{opacity:0.2;fill:#3AD29F;enable-background:new    ;}
	.st17{fill:url(#SVGID_3_);}
	.st18{fill:url(#SVGID_4_);}
	.st19{fill:#3AD29F;}
	.st20{opacity:0.2;}
	.st21{opacity:0.2;fill:#FFBC42;enable-background:new    ;}
	.st22{fill:url(#SVGID_5_);}
	.st23{opacity:0.3;fill:#FFBC42;enable-background:new    ;}
	.st24{fill:#FFBC42;}
	.st25{opacity:0.2;fill:#2D65DD;enable-background:new    ;}
	.st26{fill:url(#SVGID_6_);}
	.st27{fill:url(#SVGID_7_);}
	.st28{opacity:0.2;fill:#2D65DD;}
	.st29{opacity:0.3;fill:#2D65DD;}</style>

 <g id="chão">
  <title>finance</title>
  <path class="st0" d="m277.2,464.2c-57.7,-19.9 -123.6,-36.8 -177.5,-8.2c-6.8,3.6 -13.6,8.2 -17.2,15c-9.7,17.9 5.7,41.1 -1.8,60s-35.9,28.4 -33.6,48.6c0.6,5.3 3.5,10.1 6.8,14.2c21.1,25.8 59.8,28.4 92.5,22s64.7,-19.7 98,-18c32,1.7 61.4,17 90.8,29.9c49.4,21.8 107.2,37.5 156.6,15.6c22.6,-10.1 41.3,-27.2 63,-39.2c29.2,-16 62.7,-22.1 95.7,-17.6c22,3.1 43,10.9 64.5,16.3c48.9,12.2 99.9,11.8 150.3,11.3c9.4,-0.1 18.9,-0.2 27.9,-2.9c13.3,-4 24.3,-13.2 34.9,-22.2c13.9,-11.8 28.5,-24.8 33,-42.5c5.3,-21 -5.7,-43.3 -21.9,-57.6s-37,-22.1 -57.3,-29.6c-5,-1.8 -10.3,-3.7 -15.5,-2.3c-3.4,0.9 -6.2,3.2 -8.7,5.6c-14.4,13.8 -26.5,37.3 -46.1,33.5c-7,-1.3 -12.7,-6.2 -18.3,-10.7c-29.6,-24 -69.4,-42.5 -105.1,-29.3c-26.1,9.7 -44.5,34.6 -71,43.4c-18.8,6.3 -39.3,3.5 -59.1,4.8c-28.8,1.8 -56.8,11.9 -85.7,11.3c-73.5,-1.6 -134.8,-71.9 -208,-65.2c-5.7,0.5 -12,1.8 -15.5,6.4" id="svg_1"/>
  <path class="st1" d="m184.5,397.3c0,0 -61.1,36.9 51.6,93.7c0,0 24.8,-46.1 -2.6,-83.7c-11,-15.2 -31.6,-19.7 -48,-10.5l-1,0.5z" id="svg_2"/>
  <path class="st2" d="m185.2,396.5c0,0 52.3,40 50.9,94.4" id="svg_3"/>
  <path class="st1" d="m957.7,366.6c12.4,45.3 -40.4,174.2 -40.4,174.2s-111.1,-84.1 -123.5,-129.4c-13.4,-45 12.1,-92.3 57.1,-105.8c45,-13.4 92.3,12.1 105.8,57.1c0.3,1.3 0.6,2.6 1,3.9l0,0z" id="svg_4"/>
  <path class="st3" d="m957.7,366.6c12.4,45.3 -40.4,174.2 -40.4,174.2s-111.1,-84.1 -123.5,-129.4c-13.4,-45 12.1,-92.3 57.1,-105.8c45,-13.4 92.3,12.1 105.8,57.1c0.3,1.3 0.6,2.6 1,3.9l0,0z" id="svg_5"/>
  <path class="st2" d="m853.7,307.3c0,0 69.2,104.4 64,233.8" id="svg_6"/>
  <path class="st1" d="m975.3,449.3c0,0 -62.7,-34.1 -54.8,91.8c0,0 52.3,-1.9 70.9,-44.5c7.5,-17.2 1,-37.3 -15.2,-46.8l-0.9,-0.5z" id="svg_7"/>
  <path class="st2" d="m976.3,449.5c0,0 -8.1,65.4 -55.8,91.6" id="svg_8"/>
  <path class="st1" d="m57.1,435.3c0,0 -61.1,36.9 51.6,93.7c0,0 24.8,-46.1 -2.6,-83.7c-11,-15.2 -31.6,-19.7 -48,-10.5l-1,0.5z" id="svg_9"/>
  <path class="st2" d="m57.8,434.5c0,0 52.3,40 50.9,94.5" id="svg_10"/>
  <path class="st4" d="m819.9,483.3l-64.3,0c1.5,-3 2.2,-6.2 2.2,-9.6l0,-292.6c0,-11.9 -9.6,-21.5 -21.5,-21.5l0,0l-497.2,0c-11.9,0 -21.5,9.6 -21.5,21.5l0,0l0,292.6c0,3.3 0.8,6.6 2.2,9.6l-66.5,0c-3.1,0 -5.7,2.5 -5.7,5.7c0,0 0,0 0,0l0,4.6c0,17.6 14.2,31.8 31.8,31.8l0,0l614.4,0c17.6,0 31.8,-14.2 31.8,-31.8l0,0l0,-4.6c0,-3.1 -2.5,-5.7 -5.7,-5.7c0.1,0 0,0 0,0zm-395.9,18.2l-5.5,-6.3l136.8,0l-6.1,6.3l-125.2,0z" id="svg_11"/>
  <path class="st5" d="m565.1,480.1l-17.3,17.8l-122.3,0l-15.7,-17.8l-249,0c-3.1,0 -5.6,2.5 -5.6,5.6l0,4.5c0,17.2 13.9,31.1 31.1,31.1l600.5,0c17.2,0 31.1,-13.9 31.1,-31.1l0,-4.5c0,-3.1 -2.5,-5.6 -5.6,-5.6l-247.2,0z" id="svg_12"/>
  <path class="st6" d="m123.2,245.8c0,0 -26.2,54.2 -9,118.4s11.8,141 -5.4,160" id="svg_13"/>
  <circle class="st1" cx="123.2" cy="245.8" r="7.2" id="svg_14"/>
  <path class="st6" d="m112.3,280.6c0,0 27.2,4.9 34.4,-5" id="svg_15"/>
  <path class="st6" d="m109.7,296.4c0,0 -16.4,-18.1 -15.4,-28.9" id="svg_16"/>
  <path class="st6" d="m108.3,329.5c0,0 14.9,3.9 28.4,-25" id="svg_17"/>
  <path class="st6" d="m112.3,353.6c0,0 -37,-23.8 -32.5,-39.2" id="svg_18"/>
  <path class="st6" d="m118.1,380.9c0,0 25.9,-23 23.2,-45.6" id="svg_19"/>
  <path class="st6" d="m120.9,396.9c0,0 -33,-9.2 -32,-23.7" id="svg_20"/>
  <path class="st6" d="m123.2,416c0,0 20.8,-19.3 23.5,-31" id="svg_21"/>
  <path class="st6" d="m124.6,448.8c0,0 -21.3,-24.9 -22.2,-37.5" id="svg_22"/>
  <path class="st6" d="m124.6,469.4c0,0 23.9,-26.5 25.7,-39.2" id="svg_23"/>
  <circle class="st1" cx="94.3" cy="269.3" r="7.2" id="svg_24"/>
  <circle class="st1" cx="86.1" cy="371.2" r="7.2" id="svg_25"/>
  <circle class="st1" cx="79.8" cy="312.5" r="7.2" id="svg_26"/>
  <circle class="st1" cx="146.7" cy="275.6" r="7.2" id="svg_27"/>
  <circle class="st1" cx="146.7" cy="386.8" r="7.2" id="svg_28"/>
  <circle class="st1" cx="134.9" cy="304.5" r="7.2" id="svg_29"/>
  <circle class="st1" cx="149.4" cy="434.7" r="7.2" id="svg_30"/>
  <circle class="st1" cx="100.6" cy="415.7" r="7.2" id="svg_31"/>
  <circle class="st1" cx="142.2" cy="335.3" r="7.2" id="svg_32"/>
 </g>
 <g>
  <title>Layer 1</title>
  <g id="ecra">
   <path class="st5" d="m246.9,163.8l481.6,0c12.8,0 23.3,10.4 23.3,23.3l0,281.5c0,12.8 -10.4,23.3 -23.3,23.3l-481.6,0c-12.8,0 -23.3,-10.4 -23.3,-23.3l0,-281.6c0.1,-12.8 10.5,-23.2 23.3,-23.2z" id="svg_33"/>
   <circle class="st7" cx="487.2" cy="188.2" r="4.5" id="svg_34"/>
  </g>
  <g id="parte_branca">
   <rect x="234.8" y="211.6" class="st7" width="504.8" height="268" id="svg_35"/>
  </g>
  <g id="homem">
   <g id="svg_36">
    <path class="st8" d="m958.6,584.5c-6,-2 -14.8,-4.2 -21.8,-3.4c-6.7,-2.4 -22.3,-8.7 -33.1,-18.2c0.3,-9.3 0.1,-18.6 -0.7,-27.9c-5.5,-62.3 6.8,-103.4 6.8,-103.4s9.7,-31.3 8.6,-57.3c0.6,1.2 1,1.9 1,1.9c0.8,-22.4 8.5,-45.6 14.2,-60.1c0.2,-0.1 0.4,-0.1 0.6,-0.2l6.4,-15.2c0.5,-0.9 0.9,-1.8 1.2,-2.8l1,-2.4l-0.3,-0.1c0.1,-0.4 0.2,-0.8 0.3,-1.2l0,0c4.1,-17.3 7.3,-58.3 7.3,-58.3c11,-43.1 -15.1,-69.7 -15.1,-69.7l-44.1,-38c0.2,0.5 0.4,1 0.4,1.6l-0.4,-0.3c-0.6,-1.8 -1.3,-3.9 -2,-6.4c1.6,-1.1 3,-2.4 4.4,-3.7c5,-4.7 8.5,-10.9 9.9,-17.7c0.9,-5.3 1.1,-10.6 0.7,-16l-0.7,-18.3c0,-3.6 -0.4,-7.2 -1.1,-10.7c-3.3,-14.5 -18.2,-24.7 -33.2,-25.4c-4.8,0 -9.5,0.2 -14.2,0.8c-3.9,0.3 -7.7,0.4 -11.6,0.2c-0.4,0 -0.9,-0.1 -1.2,-0.3c-0.3,-0.3 -0.5,-0.8 -0.5,-1.3c-0.2,-1.7 0.4,-3.4 1.5,-4.7c0.6,-0.5 1.3,-0.9 2,-1.1l-1.1,0.2c0.5,-0.4 1.1,-0.7 1.7,-0.9c-3.9,0.7 -7.6,2 -11,4c-0.9,0.6 -1.8,1.3 -2.6,2.2c-2,1.8 -3.4,4.2 -3.7,6.9c-1.8,-1.5 -3.2,-3.5 -3.9,-5.8c-0.2,-0.9 -0.2,-1.9 0,-2.8c-0.3,0.3 -0.5,0.6 -0.8,1c0,-0.1 0,-0.2 0,-0.3c-2.8,3.5 -4.8,7.5 -5.8,11.8c-0.8,-0.9 -1.2,-2.2 -1,-3.4c-0.2,0.7 -0.4,1.4 -0.6,2c-0.1,-0.5 -0.1,-0.9 0,-1.4c-1.7,5.2 -2.5,10.7 -2.3,16.2c0,5.5 2.4,14.1 8.3,16c0.3,0.1 0.6,0.2 0.9,0.2c-11,17.2 -6.1,40 11.1,51.1c4.2,2.7 8.9,4.5 13.8,5.4c0.1,0.7 0.2,1.4 0.3,2.1l0.2,0c0.2,1.5 0.3,3.1 0.4,4.7c-1.5,1.5 -3.1,2.8 -4.9,3.9c-4.9,2.9 -10.5,4.7 -16.2,5.3c-6.8,0.5 -13.4,2.5 -19.4,5.8c-7,3.9 -14.8,9.7 -17.3,16.7c-4.1,11.6 -26.5,29.7 -41.5,32l-5.3,-0.3l-0.4,-0.1l0,0.1l-1.3,-0.1l-0.1,0l-0.3,0l0,0.1l-1.4,-0.1c0,0 -0.1,0.6 -0.3,1.7c-7.6,-2.6 -23.6,-9.8 -44.5,-28.8c-23.2,-21.1 -54.7,-17 -66.8,-14.3c-1.1,0.2 -1.8,1.4 -1.6,2.5c0.1,0.6 0.5,1.1 1,1.4c4.9,2.7 12.5,6.6 16,7c0,0 -7.3,7.6 0.5,11.6c1.9,0.9 4.1,0.7 5.8,-0.6c3.7,-2.7 14.2,3.5 29.3,6.7c0,0 42.6,44.1 63.8,50.9c0.5,1 1,1.9 1.6,2.8l1.3,-0.1l0,0.1l0.6,0l0.2,1.5c0,0 32.9,-1.7 43.6,-13.7c0.8,-0.7 1.5,-1.4 2.1,-2.2l-11.4,143.8l0.1,0l-0.1,1.4l8.4,0c0.7,17.7 0,35.4 -2.3,53l0,93.8c0,0 -0.4,8.3 16.7,20.3c18,12.5 35.3,25.9 51.9,40.2l2.1,1.8c-3.2,28.7 -9.7,82.2 -15.3,84.2l3.4,0.6c-5.8,7.4 -22.3,27.6 -27.3,28.1c-6.2,0.7 -10.3,10.3 0,12.3c20.5,3.6 41.6,1.5 61,-6c4,-1.6 6.4,-5.7 5.8,-9.9l-2,-15.1c0.4,0.2 0.7,0.5 0.9,0.9c1.4,4.1 0,-5.5 0,-5.5c5.6,-18.1 10.1,-36.5 13.2,-55.2l20.3,17.6c0,0 0.4,-0.5 1.1,-1.5c5,11.3 13.9,34.4 11.9,51.4c-2.7,23.2 23.2,2.7 20.5,-11c-2.2,-11.1 7.7,-58 11.5,-75.6c0.9,-3.9 -1.3,-7.8 -5.1,-9z" id="svg_37"/>
    <path class="st9" d="m746,204.8c0,0 -19.4,-3.3 -48.1,-29.4c-22.7,-20.6 -53.4,-16.6 -65.2,-14c-1.1,0.2 -1.8,1.3 -1.5,2.4c0.1,0.6 0.5,1.1 1,1.3c4.8,2.6 12.2,6.4 15.7,6.9c0,0 -7.2,7.4 0.5,11.4c1.9,0.9 4.1,0.7 5.7,-0.6c3.7,-2.7 13.8,3.4 28.6,6.6c0,0 57.5,59.5 70.8,49.4l-7.5,-34z" id="svg_38"/>
    <path class="st9" d="m844.9,123.9c0,0 5.3,22.7 0,38.8l24.1,3.3l21.4,-10.7l0,-14c0,0 -10,-21.4 -7.4,-46.1l-38.1,28.7z" id="svg_39"/>
    <path class="st10" d="m913.1,616.5c0,0 17.4,34.1 14.7,56.8c-2.7,22.7 22.7,2.7 20.1,-10.7c-2.2,-10.8 7.5,-56.7 11.2,-73.7c0.8,-3.8 -1.3,-7.7 -5.1,-8.9c-8,-2.6 -21.5,-5.9 -28.2,-0.9c-10,7.3 -12.7,37.4 -12.7,37.4z" id="svg_40"/>
    <path class="st10" d="m846.9,653.9c0,0 -22.7,29.4 -28.7,30.1s-10,10 0,12c20,3.5 40.6,1.5 59.6,-5.8c3.9,-1.5 6.3,-5.5 5.7,-9.7l-3.8,-28.6l-32.8,2z" id="svg_41"/>
    <path class="st11" d="m809.5,341.8l-21.8,2.9c3,25.5 2.9,51.2 -0.3,76.6l0,91.5c0,0 -0.4,8.1 16.3,19.8c17.6,12.2 34.5,25.3 50.7,39.2l60.6,52.5c0,0 24.1,-29.4 20.7,-46.8c0,0 -40.1,-12.7 -45.4,-33.4c-3.1,-11.9 -18.6,-21.8 -31.3,-28c-16.5,-8 -25.2,-26.4 -20.9,-44.2c0.7,-3 1.9,-5.9 3.4,-8.6c10.7,-18.7 26.1,-60.8 26.1,-60.8l-29.4,-56.1l-28.7,-4.6z" id="svg_42"/>
    <path class="st12" d="m809.5,341.8l-21.8,2.9c3,25.5 2.9,51.2 -0.3,76.6l0,91.5c0,0 -0.4,8.1 16.3,19.8c17.6,12.2 34.5,25.3 50.7,39.2l60.6,52.5c0,0 24.1,-29.4 20.7,-46.8c0,0 -40.1,-12.7 -45.4,-33.4c-3.1,-11.9 -18.6,-21.8 -31.3,-28c-16.5,-8 -25.2,-26.4 -20.9,-44.2c0.7,-3 1.9,-5.9 3.4,-8.6c10.7,-18.7 26.1,-60.8 26.1,-60.8l-29.4,-56.1l-28.7,-4.6z" id="svg_43"/>
    <path class="st11" d="m841.6,655.9c0,0 39.4,6.7 40.8,10.7s0,-5.3 0,-5.3s22.7,-68.8 17.4,-129.6s6.7,-100.9 6.7,-100.9s14,-45.4 6,-71.5c-8,-26.1 -92.2,-14.7 -92.2,-14.7s29.4,68.8 28.7,101.6c0,0 3.3,98.9 9.4,110.3c-0.1,-0.2 -9.5,96.7 -16.8,99.4z" id="svg_44"/>
    <path class="st7" d="m846.2,141.3c0,0 4,24.7 44.1,14l-26.7,203.2c0,0 -77.5,2.7 -76.9,-6.7l16,-123l43.5,-87.5z" id="svg_45"/>
    <path class="st3" d="m847.3,139.9c-5.2,5.1 -12,8.4 -19.3,9.2c-6.7,0.5 -13.1,2.4 -19,5.6c-6.9,3.9 -14.5,9.4 -16.9,16.3c-4.7,13.4 -34.1,35.4 -47.5,30.7l4.7,40.1c0,0 38.1,-2 44.8,-16.7l-11.3,143.1l10,0c0,0 5.3,-38.8 9.4,-46.8c4,-8 12,-52.1 12.7,-62.8c0.7,-10.7 10.7,-72.2 19.4,-82.8l13.1,-31.7l-0.1,-4.2z" id="svg_46"/>
    <path class="st3" d="m847.3,141.9c-6,4.7 -13.1,7.6 -20.6,8.5c-6.7,0.5 -13.1,2.5 -19,5.7c-6.9,3.9 -14.5,9.4 -16.9,16.3c-4.7,13.4 -34.1,35.4 -47.5,30.7l4.7,40.1c0,0 38.1,-2 44.8,-16.7l-11.4,143l10,0c0,0 5.3,-38.8 9.4,-46.8c4,-8 12,-52.1 12.7,-62.8s10.7,-72.2 19.4,-82.8l14.4,-31.2l0,-4z" id="svg_47"/>
    <path class="st13" d="m847.3,140.6c-6,4.7 -13.1,7.6 -20.6,8.5c-6.7,0.5 -13.1,2.4 -19,5.6c-6.9,3.9 -14.5,9.4 -16.9,16.3c-4.7,13.4 -34.1,35.4 -47.5,30.7l4.7,40.1c0,0 38.1,-2 44.8,-16.7l-11.3,143.1l10,0c0,0 5.3,-38.8 9.4,-46.8c4,-8 12,-52.1 12.7,-62.8c0.7,-10.7 10.7,-72.2 19.4,-82.8l14.4,-31.1l-0.1,-4.1z" id="svg_48"/>
    <path class="st3" d="m881.4,114.9c-0.9,-6.3 0.9,-10.3 1.7,-17.7l-38.1,28.7c0,0 0.9,3.9 1.6,9.6c1.9,0.3 3.9,0.5 5.8,0.5c13.2,-0.1 22.7,-10.4 29,-21.1z" id="svg_49"/>
    <circle class="st9" cx="852.3" cy="97.8" r="36.1" id="svg_50"/>
    <path class="st3" d="m812.9,62.5c-0.2,-6.1 0.8,-12.2 2.9,-17.9c-1.2,1.9 -0.9,4.3 0.8,5.8c1.2,-6.2 4.4,-11.9 9.1,-16.1c-2.6,0.4 -3.9,3.6 -3.3,6.1c0.9,2.5 2.4,4.6 4.5,6.3c-0.2,-3.8 2.3,-7.4 5.5,-9.5c3.3,-1.9 7,-3.2 10.8,-3.9c-2.7,0.9 -4.4,3.6 -4.1,6.4c0,0.5 0.2,0.9 0.5,1.2c0.4,0.2 0.8,0.3 1.2,0.3c3.8,0.1 7.5,0.1 11.3,-0.2c4.6,-0.5 9.3,-0.8 13.9,-0.7c14.5,0.6 29.1,10.5 32.4,24.7c0.7,3.4 1,6.9 1.1,10.4l0.7,17.9c0.4,5.2 0.2,10.5 -0.6,15.6c-2,9.7 -8.3,17.9 -17,22.5c-5.2,-7.6 -5.7,-17.4 -7.5,-26.4c-0.3,-2.1 -1.1,-4.1 -2.3,-5.8c-1.3,-1.8 -3.5,-2.5 -5.6,-1.9c-2,0.8 -2.8,3.8 -1.2,5.1c-1.5,1.7 -4.2,0.4 -5.8,-1.1c-4.6,-4.3 -7.7,-10 -9.1,-16.2c-0.7,-3.1 -1.3,-6.9 -4.4,-8c-1,-0.3 -2.1,-0.4 -3.2,-0.2c-6.4,0.4 -16.3,3.1 -22.5,1c-5.7,-1.7 -8.1,-10.1 -8.1,-15.4z" id="svg_51"/>
    <path class="st14" d="m813.6,61.8c-0.2,-6.1 0.8,-12.2 2.9,-17.9c-1.2,1.9 -0.9,4.3 0.8,5.8c1.2,-6.2 4.4,-11.9 9.1,-16.1c-2.6,0.4 -3.9,3.6 -3.3,6.1c0.9,2.5 2.4,4.6 4.5,6.3c-0.2,-3.8 2.3,-7.4 5.5,-9.5c3.3,-1.9 7,-3.2 10.8,-3.9c-2.7,0.9 -4.4,3.6 -4.1,6.4c0,0.5 0.2,0.9 0.5,1.2c0.4,0.2 0.8,0.3 1.2,0.3c3.8,0.1 7.5,0.1 11.3,-0.2c4.6,-0.5 9.3,-0.8 13.9,-0.7c14.5,0.6 29.1,10.5 32.4,24.7c0.7,3.4 1,6.9 1.1,10.4l0.7,17.9c0.4,5.2 0.2,10.5 -0.6,15.6c-2,9.7 -8.3,17.9 -17,22.5c-5.2,-7.6 -5.7,-17.4 -7.5,-26.4c-0.3,-2.1 -1.1,-4.1 -2.3,-5.8c-1.3,-1.8 -3.5,-2.5 -5.6,-1.9c-2,0.8 -2.8,3.8 -1.2,5.1c-1.5,1.7 -4.2,0.4 -5.8,-1.1c-4.6,-4.3 -7.7,-10 -9.1,-16.2c-0.7,-3.1 -1.3,-6.9 -4.4,-8c-1,-0.3 -2.1,-0.4 -3.2,-0.2c-6.4,0.4 -16.3,3.1 -22.5,1c-5.8,-1.7 -8.1,-10 -8.1,-15.4z" id="svg_52"/>
    <path class="st3" d="m741.6,201.8c0,0 -5.3,24.7 4.7,40.1l5.7,-0.5l-3.1,-39.2l-7.3,-0.4z" id="svg_53"/>
    <path class="st13" d="m743.1,201.8c0,0 -5.3,24.7 4.7,40.1l5.7,-0.5l-3.1,-39.2l-7.3,-0.4z" id="svg_54"/>
    <path class="st3" d="m886.7,134.3l43.1,37.1c0,0 25.4,26.1 14.7,68.2c0,0 -4.7,61.5 -10,64.2c0,0 -18.7,37.4 -20.1,72.9c0,0 -25.1,-50.5 -36.4,-19.7c-11.4,30.7 -37.8,35.1 -37.8,35.1l14.7,-181.9c0,-0.1 37.2,-64.6 31.8,-75.9z" id="svg_55"/>
    <path class="st13" d="m888,134.3l43.1,37.1c0,0 25.4,26.1 14.7,68.2c0,0 -4.7,61.5 -10,64.2c0,0 -18.7,37.4 -20.1,72.9c0,0 -26.4,-53.1 -37.8,-22.4s-36.3,37.7 -36.3,37.7l14.7,-181.8c0,0 37.1,-64.6 31.7,-75.9z" id="svg_56"/>
    <path class="st9" d="m907.8,291c0,0 10.7,-7.4 28.1,12.7l-42.8,77.5l-14.4,-21.7c0,0 30.4,-59.8 29.1,-68.5z" id="svg_57"/>
    <path class="st3" d="m897.4,295.3c0,0 23.7,26.6 32.9,22.3l8.5,-19.9l-32,-13.7l-9.4,11.3z" id="svg_58"/>
    <path class="st13" d="m897.4,294c0,0 23.7,26.6 32.9,22.3l8.5,-19.9l-32.1,-13.8l-9.3,11.4z" id="svg_59"/>
    <path class="st3" d="m880.1,354.4c0,0 11.3,23.1 17.3,24.4l-8.7,10l-12.7,-24l4.1,-10.4z" id="svg_60"/>
    <path class="st11" d="m879.5,355.2c0,0 11.3,23.1 17.3,24.4l-8.7,10l-12.7,-24.1l4.1,-10.3z" id="svg_61"/>
    <path class="st3" d="m900.7,212.4c0,0 1.3,48.1 -4,66.2" id="svg_62"/>
    <path class="st3" d="m792.5,221.8c0,0 8,-2.7 8,-9.4" id="svg_63"/>
   </g>
  </g>
 </g>
 <g>
  <title>background</title>
  <rect x="-1" y="-1" width="1003" height="760" id="canvas_background" fill="none"/>
  <style transform="matrix(0.06371295680080014,0,0,0.06371295680080014,0,0) " type="text/css">.st0{opacity:0.5;fill:#618bb0;enable-background:new    ;}
	.st1{fill:#618bb0;}
	.st2{fill:none;stroke:#535461;stroke-miterlimit:10;}
	.st3{opacity:0.1;enable-background:new    ;}
	.st4{fill:url(#SVGID_1_);}
	.st5{fill:#2d2e34;}
	.st6{fill:none;stroke:#535461;stroke-width:2;stroke-miterlimit:10;}
	.st7{fill:#31516d;}
	.st8{fill:url(#SVGID_2_);}
	.st9{fill:#FEC3BE;}
	.st10{fill:#ff6b57;}
	.st11{fill:#2f2e41;}
	.st12{opacity:0.9;fill:#2f2e41;enable-background:new    ;}
	.st13{fill:#ff6b57;}
	.st14{fill:#0f0f0f;}
	.st15{fill:none;stroke:#D0D9F1;stroke-width:4;stroke-miterlimit:10;stroke-dasharray:10,15;}
	.st16{opacity:0.2;fill:#3AD29F;enable-background:new    ;}
	.st17{fill:url(#SVGID_3_);}
	.st18{fill:url(#SVGID_4_);}
	.st19{fill:#3AD29F;}
	.st20{opacity:0.2;}
	.st21{opacity:0.2;fill:#FFBC42;enable-background:new    ;}
	.st22{fill:url(#SVGID_5_);}
	.st23{opacity:0.3;fill:#FFBC42;enable-background:new    ;}
	.st24{fill:#FFBC42;}
	.st25{opacity:0.2;fill:#2D65DD;enable-background:new    ;}
	.st26{fill:url(#SVGID_6_);}
	.st27{fill:url(#SVGID_7_);}
	.st28{opacity:0.2;fill:#2D65DD;}
	.st29{opacity:0.3;fill:#2D65DD;}</style>
  <g stroke="null" id="svg_399">
   <g stroke="null" transform="matrix(0.5265153983750562,0,0,0.5017168713712274,-1803.5207830932147,-1288.3847753657226) " id="svg_397">
    <title stroke="null" transform="translate(-9.496397972106934,0) translate(23.255163192749023,-352.4232482910156) translate(-16.27126121520996,154.64979553222656) translate(-5.297036647796631,41.887535095214844) translate(-183.98904418945312,3.973374843597412) translate(-2653.8330078125,-2001.0185546875) translate(6626.986328125,0) translate(0,5073.5390625) ">background</title>
    <rect stroke="null" x="3780.35474" y="2919.60796" width="953.84" height="612.17" id="svg_395" fill="none"/>
   </g>
   <g stroke="null" transform="matrix(0.5265153983750562,0,0,0.5017168713712274,-1803.5207830932147,-1288.3847753657226) " id="svg_398">
    <title stroke="null" transform="translate(-9.496397972106934,0) translate(23.255163192749023,-352.4232482910156) translate(-16.27126121520996,154.64979553222656) translate(-5.297036647796631,41.887535095214844) translate(-183.98904418945312,3.973374843597412) translate(-2653.8330078125,-2001.0185546875) translate(6626.986328125,0) translate(0,5073.5390625) ">Layer 1</title>
    <circle stroke="null" cx="3894.00474" cy="2971.57266" r="8.27" fill="#ff5252" id="svg_394"/>
    <circle stroke="null" cx="3916.75474" cy="2971.57266" r="8.27" fill="#ff0" id="svg_393"/>
    <circle stroke="null" cx="3939.50474" cy="2971.57266" r="8.27" fill="#69f0ae" id="svg_392"/>
   </g>
  </g>
  <defs>
   <linearGradient id="svg_565" x1="0.49998" y1="0.99997" x2="0.49998" y2="0.00014">
    <stop offset="0" stop-color="gray" stop-opacity="0.25"/>
    <stop offset="0.54" stop-color="gray" stop-opacity="0.12"/>
    <stop offset="1" stop-color="gray" stop-opacity="0.1"/>
   </linearGradient>
   <linearGradient id="svg_541" x1="687.77" y1="477.59" x2="687.77" y2="422.25" xlink:href="#svg_565"/>
  </defs>
  <g stroke="null" id="svg_569">
   <g stroke="null" transform="matrix(0.6795810028803199,0,0,0.6667037808539192,-3939.5822226118735,-3486.9688191091795) " id="svg_567">
    <title stroke="null" transform="translate(-5.968852996826172,27.957504272460938) translate(-33.6715202331543,24.60912322998047) translate(-59.09477615356445,83.27955627441406) translate(-449.27630615234375,305.90869140625) translate(6626.986328125,0) translate(0,5073.5390625) ">background</title>
    <rect stroke="null" x="6077.97487" y="5514.29394" width="953.84" height="612.17" id="svg_564" fill="none"/>
   </g>
   <g stroke="null" transform="matrix(0.6795810028803199,0,0,0.6667037808539192,-3939.5822226118735,-3486.9688191091795) " id="svg_568">
    <title stroke="null" transform="translate(-5.968852996826172,27.957504272460938) translate(-33.6715202331543,24.60912322998047) translate(-59.09477615356445,83.27955627441406) translate(-449.27630615234375,305.90869140625) translate(6626.986328125,0) translate(0,5073.5390625) ">Layer 1</title>
    <rect stroke="null" x="6191.81487" y="5604.47394" width="264" height="11" fill="#618bb0" opacity="0.5" id="svg_563"/>
    <rect stroke="null" x="6191.81487" y="5626.47394" width="264" height="11" fill="#618bb0" opacity="0.5" id="svg_562"/>
    <rect stroke="null" x="6191.81487" y="5648.47394" width="264" height="11" fill="#618bb0" opacity="0.5" id="svg_561"/>
    <rect stroke="null" x="6282.81487" y="5670.47394" width="173" height="11" fill="#618bb0" opacity="0.5" id="svg_560"/>
    <rect stroke="null" x="6191.81487" y="5692.47394" width="139" height="11" fill="#618bb0" opacity="0.5" id="svg_559"/>
    <rect stroke="null" x="6266.81487" y="5714.47394" width="107" height="11" fill="#618bb0" opacity="0.5" id="svg_558"/>
    <rect stroke="null" x="6490.81487" y="5681.47394" width="311" height="179" fill="#618bb0" opacity="0.5" id="svg_557"/>
    <rect stroke="null" x="6527.81487" y="5698.47394" width="311" height="179" fill="#eee" id="svg_556"/>
    <path stroke="null" d="m6701.81487,5877.47394l-174,0l0,-32.79c42.51,-19.87 107.92,-31.03 174,32.79z" fill="#618bb0" id="svg_555"/>
    <g stroke="null" opacity="0.1" id="svg_553">
     <path stroke="null" d="m6836.81487,5872.78394l0,4.69l-217,0l0,-1s106.78,-103.97 217,-3.69z" id="svg_554"/>
    </g>
    <path stroke="null" d="m6838.81487,5872.78394l0,4.69l-217,0l0,-1s106.78,-103.97 217,-3.69z" fill="#618bb0" id="svg_552"/>
    <circle stroke="null" cx="6563.81487" cy="5730.47394" r="16" fill="#618bb0" id="svg_551"/>
    <path stroke="null" d="m6700.03487,5718.37394c-1.83,0 -3.87,0 -5.26,0.11a6.4,6.4 0 0 0 -1.82,0.37l-9.41,3.38c7.6,0.19 15.53,0.13 23.32,0.07l43.68,-0.34c4.46,0 9.14,-0.08 12.85,-0.34c2.49,-0.18 4.32,-0.44 6.62,-0.64c8.27,-0.74 20.32,-0.6 31.09,-0.56s23.77,-0.24 27.56,-1.32l-23.12,0c-2.49,0 -5.11,0 -7.31,-0.12c-2.57,-0.15 -4.14,-0.43 -6.4,-0.63c-3.74,-0.32 -8.9,-0.36 -13.7,-0.38c-26.35,-0.11 -52.37,0.51 -78.1,0.4z" fill="#f4f4f4" id="svg_550"/>
    <path stroke="null" d="m6725.91487,5737.75394c-0.4,0 -0.84,0 -1.14,0a1.39,1.39 0 0 0 -0.4,0.08l-2,0.73c1.65,0 3.36,0 5.05,0l9.46,-0.07c1,0 2,0 2.78,-0.07c0.54,0 0.94,-0.1 1.43,-0.14c1.79,-0.16 4.4,-0.13 6.74,-0.12a36.72,36.72 0 0 0 6,-0.29l-5,0c-0.54,0 -1.11,0 -1.58,0s-0.9,-0.09 -1.39,-0.14c-0.81,-0.07 -1.93,-0.08 -3,-0.08c-5.7,0 -11.34,0.13 -16.95,0.1z" fill="#f4f4f4" id="svg_549"/>
    <path stroke="null" d="m6658.91487,5765.75394c-0.4,0 -0.84,0 -1.14,0a1.39,1.39 0 0 0 -0.4,0.08l-2,0.73c1.65,0 3.36,0 5.05,0l9.46,-0.07c1,0 2,0 2.78,-0.07c0.54,0 0.94,-0.1 1.43,-0.14c1.79,-0.16 4.4,-0.13 6.74,-0.12a36.72,36.72 0 0 0 6,-0.29l-5,0c-0.54,0 -1.11,0 -1.58,0s-0.9,-0.09 -1.39,-0.14c-0.81,-0.07 -1.93,-0.08 -3,-0.08c-5.7,0 -11.34,0.13 -16.95,0.1z" fill="#f4f4f4" id="svg_548"/>
    <path stroke="null" d="m6621.32487,5868.60394l-7.52,0s-2.35,-82.24 7.52,-107.62l1.88,0s-6.58,93.05 -1.88,107.62z" fill="#618bb0" id="svg_547"/>
    <path stroke="null" d="m6616.15487,5756.75394s-6.11,16.92 -3.29,24.44c0,0 4.23,-15.51 9.16,-17.86s10.1,17.86 10.1,17.86s2.82,-12.69 -2.35,-23c0,0 10.34,5.64 15.51,16.45c0,0 0.94,-7 -11.28,-21.62c0,0 10.81,2.82 17.86,9.4c0,0 2.35,-5.17 -12.22,-13.63c0,0 1.88,-6.11 13.16,-3.29c0,0 0,-8 -17.86,-6.58c0,0 0,-5.17 11.75,-4.23c0,0 0,-6.58 -13.63,-4.23c0,0 2.82,-4.23 4.7,-5.17a9.45,9.45 0 0 0 -6.58,1.88s0.47,-8.46 -6.58,-11.75l-0.94,11.75s-7.9,-9.31 -6.11,-7.52c0.47,0.47 1.88,6.11 1.41,8.93c0,0 -8,-6.58 -17.86,0.47c0,0 12.22,0.94 14.1,5.17c0,0 -10.34,-1.88 -12.69,-0.47c0,0 8,2.82 7.52,4.7c0,0 -14.1,0 -16,5.17c0,0 14.57,1.88 15.51,3.29c0,0 -16.92,12.22 -17.86,15.51c0,0 17.39,-10.34 20.21,-10.34s-12.69,15 -11.75,18.8c0.04,-0.03 12.77,-15.07 16.01,-14.13z" fill="#618bb0" id="svg_546"/>
    <path stroke="null" d="m6714.07487,5865.52394l5.74,0s1.8,-62.83 -5.74,-82.22l-1.44,0s5.04,71.07 1.44,82.22z" fill="#618bb0" id="svg_545"/>
    <path stroke="null" d="m6718.02487,5780.07394s4.67,12.93 2.51,18.67c0,0 -3.23,-11.85 -7,-13.64s-7.72,13.64 -7.72,13.64s-2.15,-9.69 1.8,-17.59a31.21,31.21 0 0 0 -11.85,12.57s-0.72,-5.39 8.62,-16.52c0,0 -8.26,2.15 -13.64,7.18c0,0 -1.8,-3.95 9.34,-10.41c0,0 -1.44,-4.67 -10.05,-2.51c0,0 0,-6.1 13.64,-5c0,0 0,-3.95 -9,-3.23c0,0 0,-5 10.41,-3.23c0,0 -2.15,-3.23 -3.59,-3.95a7.22,7.22 0 0 1 5,1.44s-0.36,-6.46 5,-9l0.72,9s6,-7.11 4.67,-5.74a15.75,15.75 0 0 0 -1.08,6.82s6.1,-5 13.64,0.36c0,0 -9.34,0.72 -10.77,3.95c0,0 7.9,-1.44 9.69,-0.36c0,0 -6.1,2.15 -5.74,3.59c0,0 10.77,0 12.21,3.95c0,0 -11.13,1.44 -11.85,2.51c0,0 12.93,9.34 13.64,11.85c0,0 -13.28,-7.9 -15.44,-7.9s9.69,11.49 9,14.36c0.05,-0.04 -9.64,-11.51 -12.16,-10.81z" fill="#618bb0" id="svg_544"/>
    <path stroke="null" d="m6782.80487,5853.24394l3.56,0s1.11,-38.91 -3.56,-50.92l-0.89,0s3.11,44.05 0.89,50.92z" fill="#618bb0" id="svg_543"/>
    <path stroke="null" d="m6785.25487,5800.32394s2.89,8 1.56,11.56c0,0 -2,-7.34 -4.34,-8.45s-4.78,8.45 -4.78,8.45s-1.33,-6 1.11,-10.9a19.33,19.33 0 0 0 -7.34,7.78s-0.44,-3.34 5.34,-10.23a22.56,22.56 0 0 0 -8.45,4.45s-1.11,-2.45 5.78,-6.45c0,0 -0.89,-2.89 -6.23,-1.56c0,0 0,-3.78 8.45,-3.11c0,0 0,-2.45 -5.56,-2c0,0 0,-3.11 6.45,-2a9.77,9.77 0 0 0 -2.22,-2.45a4.47,4.47 0 0 1 3.11,0.89s-0.22,-4 3.11,-5.56l0.44,5.56s3.74,-4.4 2.89,-3.56a9.75,9.75 0 0 0 -0.67,4.22a6.93,6.93 0 0 1 8.45,0.22s-5.78,0.44 -6.67,2.45c0,0 4.89,-0.89 6,-0.22c0,0 -3.78,1.33 -3.56,2.22c0,0 6.67,0 7.56,2.45c0,0 -6.89,0.89 -7.34,1.56c0,0 8,5.78 8.45,7.34c0,0 -8.23,-4.89 -9.56,-4.89s6,7.12 5.56,8.89c0.02,0.01 -5.99,-7.11 -7.54,-6.66z" fill="#618bb0" id="svg_542"/>
    <path stroke="null" d="m6652.80487,5809.24394l0,0l-0.75,-4a2.17,2.17 0 0 0 -0.68,-1.57l-3.47,-1.7l0,0a3.93,3.93 0 0 1 -0.62,-1l0.06,-0.09a2.08,2.08 0 0 0 0.4,-0.81a1.38,1.38 0 0 0 0,-0.23l0.05,0a1.29,1.29 0 0 0 1.43,-1l0,-0.09a1.29,1.29 0 0 1 -1.17,1a3.54,3.54 0 0 0 1.57,-2.94s0,-0.1 0,-0.15a1.28,1.28 0 0 0 0.59,-0.86l0,-0.09a1.28,1.28 0 0 1 -0.61,0.8a3.52,3.52 0 0 0 -0.22,-1l0.09,0a1.29,1.29 0 0 0 1.29,-1.29s0,-0.06 0,-0.09a1.29,1.29 0 0 1 -1.28,1.2l-0.16,0l0,-0.06a2.11,2.11 0 0 0 1.48,-1.71s0,-0.06 0,-0.09a1.28,1.28 0 0 1 -0.26,0.69a1.29,1.29 0 0 0 -2.54,-0.38l-0.23,-0.13a1.29,1.29 0 0 1 1.16,-0.94l-0.09,0a1.29,1.29 0 0 0 -1.23,0.87a3.54,3.54 0 0 0 -4.46,1.28c-0.27,0.2 -0.62,0.49 -0.61,0.74a2.45,2.45 0 0 0 -0.31,0.38a4.9,4.9 0 0 0 -0.4,2.67a2.83,2.83 0 0 1 -0.92,2.45a1.22,1.22 0 0 0 0.94,0a3.62,3.62 0 0 0 0.83,-0.49a1.86,1.86 0 0 0 0.59,-0.57l0,-0.05a2.92,2.92 0 0 0 0.53,0.28c0.07,0.6 0.09,1.29 -0.18,1.52l0,0l0,0l0.05,-0.11a3.25,3.25 0 0 1 -2.25,0.64a2.81,2.81 0 0 0 -2.33,1.5l-1.09,4.55l0,0l0,0.08l0,0l0,0.08l0,0a0.35,0.35 0 0 0 0.26,0.25l0.34,0.09a7.06,7.06 0 0 1 -0.23,2.31a19.73,19.73 0 0 0 -0.39,3.4c0.08,0.57 0.22,3.54 0.29,4.95a14.66,14.66 0 0 0 -0.29,1.46l-1.61,9.66s-1.2,7.73 -1.14,10.07l-0.21,1.35s-3.27,4.1 -2.31,4.68s2.44,0.83 3.85,-1.35a3.53,3.53 0 0 1 0.9,-1.35a1.32,1.32 0 0 0 0.45,-1.13l-0.1,-1l0.17,0.06l0,0l0.1,0s1.61,-5.29 1.43,-9c0,0 3,-10.62 5.25,-12.29l0,-0.07l0.21,-0.1l0.48,10.29l-0.49,11.34l-0.11,0.68s-3.27,4.1 -2.31,4.68s2.44,0.83 3.85,-1.35a3.53,3.53 0 0 1 0.9,-1.35a1.32,1.32 0 0 0 0.45,-1.13l-0.15,-1.5c0.56,-1.91 2,-7.41 1.41,-10.6l1,-6.78c1,-1.13 0.87,-4 0.87,-4c0.79,-1.65 1,-8.12 1,-8.12l0.2,-3.2a2.66,2.66 0 0 1 0.45,0l0.1,0l0.06,0l0,-0.06a0.3,0.3 0 0 0 0.07,-0.09l0.06,0l0,-0.08l0,0l-0.01,-0.01zm-2.8,6.5c-0.09,-0.22 -0.19,-0.44 -0.3,-0.66l-0.08,0l0,-0.08a0.39,0.39 0 0 1 0,-0.08l0,-0.08a2.76,2.76 0 0 0 0.12,-0.33a1.25,1.25 0 0 0 0.19,-0.69a6.54,6.54 0 0 1 0.07,1.92zm-0.3,-2.74l-0.2,-2.14l0.06,-0.17l0.27,2.72l-0.13,-0.41zm-9.48,0.29a0.75,0.75 0 0 0 -0.18,0.58s0,0 0,0.07a2.43,2.43 0 0 0 0.09,0.64l-0.31,1.34l0,-2.56a5.66,5.66 0 0 0 0.54,-0.86a1.4,1.4 0 0 1 -0.14,0.79z" fill="url(#svg_541)" id="svg_540"/>
    <path stroke="null" d="m6642.24487,5796.77394a4.72,4.72 0 0 0 -0.39,2.57a2.73,2.73 0 0 1 -0.89,2.36a1.18,1.18 0 0 0 0.91,0a3.49,3.49 0 0 0 0.8,-0.47a1.79,1.79 0 0 0 0.57,-0.55a2.12,2.12 0 0 0 0.13,-1.09a11.56,11.56 0 0 1 0.17,-1.95c0.06,-0.4 0.44,-1.49 0,-1.7s-1.11,0.53 -1.3,0.83z" fill="#72351c" id="svg_539"/>
    <path stroke="null" d="m6635.63487,5839.28394l-0.31,2s-3.15,4 -2.22,4.51s2.35,0.8 3.71,-1.3a3.4,3.4 0 0 1 0.86,-1.3l0,0a1.27,1.27 0 0 0 0.43,-1.09l-0.31,-3.05l-2.16,0.23z" fill="#333" id="svg_538"/>
    <path stroke="null" d="m6645.11487,5840.07394l-0.31,2s-3.15,4 -2.22,4.51s2.35,0.8 3.71,-1.3a3.4,3.4 0 0 1 0.86,-1.3l0,0a1.27,1.27 0 0 0 0.43,-1.09l-0.31,-3.05l-2.16,0.23z" fill="#333" id="svg_537"/>
    <path stroke="null" d="m6640.20487,5816.16394s-1.48,1.07 -2,4.79l-1.55,9.31s-1.31,8.44 -1.07,10.06l2.62,0.9s1.55,-5.1 1.38,-8.65c0,0 3.15,-11.22 5.36,-12l0.47,9.91l-0.5,11.15l2.24,0.45s2.27,-7.1 1.55,-10.86l1.17,-8s1.34,-4.27 -0.52,-8l-9.15,0.94z" fill="#258441" id="svg_536"/>
    <g stroke="null" opacity="0.1" id="svg_533">
     <path stroke="null" d="m6644.71487,5820.72394l0,-0.17c-2.21,0.79 -5.36,12 -5.36,12a31.51,31.51 0 0 1 -1.35,8.56l0.28,0.1s1.55,-5.1 1.38,-8.65c-0.01,0.01 2.87,-10.19 5.05,-11.84z" id="svg_535"/>
     <path stroke="null" d="m6649.44487,5815.27394l-0.3,0a11.84,11.84 0 0 1 0.5,7.93l-1.17,8c0.69,3.56 -1.32,10.11 -1.53,10.8l0.29,0.06s2.27,-7.1 1.55,-10.86l1.17,-8s1.35,-4.25 -0.51,-7.93z" id="svg_534"/>
    </g>
    <path stroke="null" d="m6638.19487,5808.87394a0.33,0.33 0 0 0 0.26,0.33a5.18,5.18 0 0 1 2,1c1.1,0.86 -1.17,-1.72 -1.17,-1.72l-0.76,0.17l-0.31,0.28l-0.02,-0.06z" fill="#f55f44" id="svg_532"/>
    <path stroke="null" d="m6638.19487,5808.87394a0.33,0.33 0 0 0 0.26,0.33a5.18,5.18 0 0 1 2,1c1.1,0.86 -1.17,-1.72 -1.17,-1.72l-0.76,0.17l-0.31,0.28l-0.02,-0.06z" opacity="0.1" id="svg_531"/>
    <path stroke="null" d="m6649.01487,5811.15394a7,7 0 0 1 3.12,-1.23a0.29,0.29 0 0 0 0.29,-0.29l0,0s-2.62,-1.03 -3.41,1.52z" fill="#f55f44" id="svg_530"/>
    <path stroke="null" d="m6652.42487,5809.62394s-2.62,-1 -3.41,1.52c0,0 1.93,-1.48 3.27,-1.24" opacity="0.1" id="svg_529"/>
    <circle stroke="null" cx="6645.97487" cy="5797.57394" r="3.41" fill="#72351c" id="svg_528"/>
    <path stroke="null" d="m6643.62487,5799.96394s0.48,2 0,2.41s-1.45,1.17 -0.72,1.76s3.34,1.59 4.21,1.1s1.86,-0.34 1.62,-1.34s-2.14,-0.79 -2.17,-5.76l-2.94,1.83z" fill="#fdb797" id="svg_527"/>
    <path stroke="null" d="m6638.79487,5808.27394a12.48,12.48 0 0 1 -0.21,3.24a19,19 0 0 0 -0.38,3.27c0.1,0.72 0.31,5.48 0.31,5.48s-0.38,4.17 1.65,3.79s-0.31,-4.76 -0.31,-4.76l0.1,-5.69a5.31,5.31 0 0 0 1,-2.55c0.15,-1.37 -2.16,-2.78 -2.16,-2.78z" opacity="0.1" id="svg_526"/>
    <path stroke="null" d="m6638.76487,5808.27394a12.48,12.48 0 0 1 -0.21,3.24a19,19 0 0 0 -0.38,3.27c0.1,0.72 0.31,5.48 0.31,5.48s-0.38,4.17 1.65,3.79s-0.31,-4.76 -0.31,-4.76l0.1,-5.69a5.31,5.31 0 0 0 1,-2.55c0.14,-1.37 -2.16,-2.78 -2.16,-2.78z" fill="#fdb797" id="svg_525"/>
    <path stroke="null" d="m6651.75487,5808.58394l-0.28,4.45s-0.17,6.24 -0.93,7.82c0,0 0.21,4.38 -1.83,4.27s0.34,-4.79 0.34,-4.79s1.09,-4.87 0.53,-6.41l-0.53,-5.34l2.7,0z" opacity="0.1" id="svg_524"/>
    <path stroke="null" d="m6651.78487,5808.58394l-0.28,4.45s-0.17,6.24 -0.93,7.82c0,0 0.21,4.38 -1.83,4.27s0.34,-4.79 0.34,-4.79s1.09,-4.87 0.53,-6.41l-0.53,-5.34l2.7,0z" fill="#fdb797" id="svg_523"/>
    <path stroke="null" d="m6645.17487,5804.27394s1.65,0.76 2.55,-1.5l3.35,1.64a2.09,2.09 0 0 1 0.65,1.52l0.72,3.86s-2.45,-0.83 -3.21,1.45l0.21,2.17l0,0a2.34,2.34 0 0 1 -0.11,1.62a0.36,0.36 0 0 0 0,0.29a1.06,1.06 0 0 1 -1,1.38a20.33,20.33 0 0 0 -2.69,0.21c-0.72,0.21 -2.9,-0.41 -3.62,0s-2.24,-0.31 -2.24,-0.31l0.41,-1.76s-0.28,-0.86 0.07,-1.17s0.14,-3 -0.17,-3.76c0,0 -1.24,-1.17 -2,-1l1,-4.45a2.7,2.7 0 0 1 2.24,-1.45a3.14,3.14 0 0 0 2.17,-0.62s-0.75,1.64 1.67,1.88z" opacity="0.1" id="svg_522"/>
    <path stroke="null" d="m6645.34487,5804.19394c0.45,0.12 1.65,0.25 2.37,-1.56l3.35,1.64a2.09,2.09 0 0 1 0.65,1.52l0.72,3.86s-2.45,-0.83 -3.21,1.45l0.21,2.17l0.14,0.43a1.23,1.23 0 0 1 -0.17,1.1a0.39,0.39 0 0 0 -0.07,0.4a1.06,1.06 0 0 1 -1,1.38a20.33,20.33 0 0 0 -2.69,0.21c-0.72,0.21 -2.9,-0.41 -3.62,0s-2.24,-0.31 -2.24,-0.31l0.41,-1.76s-0.28,-0.86 0.07,-1.17s0.14,-3 -0.17,-3.76c0,0 -1.24,-1.17 -2,-1l1,-4.45a2.7,2.7 0 0 1 2.24,-1.45a3.14,3.14 0 0 0 2.17,-0.62s-0.81,1.48 1.32,1.8l0.52,0.12z" opacity="0.1" id="svg_521"/>
    <path stroke="null" d="m6645.34487,5804.26394c0.45,0.12 1.65,0.25 2.37,-1.56l3.35,1.64a2.09,2.09 0 0 1 0.65,1.52l0.72,3.86s-2.45,-0.83 -3.21,1.45l0.21,2.17l0,0a2.34,2.34 0 0 1 -0.11,1.62a0.36,0.36 0 0 0 0,0.29a1.06,1.06 0 0 1 -1,1.38a20.33,20.33 0 0 0 -2.69,0.21c-0.72,0.21 -2.9,-0.41 -3.62,0s-2.24,-0.31 -2.24,-0.31l0.41,-1.76s-0.28,-0.86 0.07,-1.17s0.14,-3 -0.17,-3.76c0,0 -1.24,-1.17 -2,-1l1,-4.45a2.7,2.7 0 0 1 2.24,-1.45a3.14,3.14 0 0 0 2.17,-0.62s-0.81,1.48 1.32,1.8l0.53,0.14z" fill="#f55f44" id="svg_520"/>
    <path stroke="null" d="m6646.61487,5798.31394l-2.93,1.83a9.52,9.52 0 0 1 0.17,1a2.82,2.82 0 0 0 1.05,0.2a3,3 0 0 0 1.9,-0.86a11.39,11.39 0 0 1 -0.19,-2.17z" opacity="0.1" id="svg_519"/>
    <circle stroke="null" cx="6644.84487" cy="5798.29394" r="2.83" fill="#fdb797" id="svg_518"/>
    <circle stroke="null" cx="6649.01487" cy="5794.88394" r="1.24" fill="#72351c" id="svg_517"/>
    <path stroke="null" d="m6649.25487,5796.19394a1.24,1.24 0 0 1 -1.24,-1.15s0,0.06 0,0.09a1.24,1.24 0 1 0 2.48,0s0,-0.06 0,-0.09a1.24,1.24 0 0 1 -1.24,1.15z" fill="#72351c" id="svg_516"/>
    <path stroke="null" d="m6648.54487,5797.37394a1.24,1.24 0 0 1 -1,-1.36l0,0.08a1.24,1.24 0 1 0 2.44,0.45l0,-0.09a1.24,1.24 0 0 1 -1.44,0.92z" fill="#72351c" id="svg_515"/>
    <path stroke="null" d="m6647.58487,5800.37394a1.24,1.24 0 0 1 -1,-1.36l0,0.08a1.24,1.24 0 0 0 2.44,0.45l0,-0.09a1.24,1.24 0 0 1 -1.44,0.92z" fill="#72351c" id="svg_514"/>
    <path stroke="null" d="m6649.25487,5795.53394a1.24,1.24 0 0 1 -1.24,-1.16s0,0.06 0,0.09a1.24,1.24 0 1 0 2.48,0s0,-0.06 0,-0.09a1.24,1.24 0 0 1 -1.24,1.16z" fill="#72351c" id="svg_513"/>
    <path stroke="null" d="m6647.52487,5794.86394a1.24,1.24 0 0 1 1.17,-1.23l-0.09,0a1.24,1.24 0 0 0 0,2.48l0.09,0a1.24,1.24 0 0 1 -1.17,-1.25z" fill="#72351c" id="svg_512"/>
    <path stroke="null" d="m6648.77487,5806.56394a4.47,4.47 0 0 1 0,1.86s-0.17,1.62 0.1,1.9" opacity="0.1" id="svg_511"/>
    <path stroke="null" d="m6640.39487,5806.94394a4.47,4.47 0 0 1 0,1.86s-0.17,1.62 0.1,1.9" opacity="0.1" id="svg_510"/>
    <path stroke="null" d="m6640.32487,5813.59394a1.23,1.23 0 0 0 0.83,0a1.72,1.72 0 0 1 1,0" opacity="0.1" id="svg_509"/>
    <path stroke="null" d="m6640.74487,5811.15394a7.15,7.15 0 0 0 2.86,-0.45s3.52,0.86 4.52,0.24" opacity="0.1" id="svg_508"/>
    <rect stroke="null" x="6638.18487" y="5826.01394" width="2.17" height="1.34" rx="0.67" ry="0.67" fill="#fdb797" id="svg_507"/>
    <path stroke="null" d="m6638.19487,5826.37394l1.16,-0.05l1,0.16l-0.35,0l-1.81,-0.11z" fill="#f0e4e4" id="svg_506"/>
    <path stroke="null" d="m6646.01487,5820.76394l1.16,0l1,0.1l-0.35,0l-1.81,-0.1z" fill="#f0e4e4" id="svg_505"/>
    <path stroke="null" d="m6646.01487,5821.00394l1.16,0l1,0.1l-0.35,0l-1.81,-0.1z" fill="#f0e4e4" id="svg_504"/>
    <path stroke="null" d="m6646.01487,5821.25394l1.16,0l1,0.1l-0.35,0l-1.81,-0.1z" fill="#f0e4e4" id="svg_503"/>
    <path stroke="null" d="m6646.01487,5821.49394l1.16,0l1,0.1l-0.35,0l-1.81,-0.1z" fill="#f0e4e4" id="svg_502"/>
    <path stroke="null" d="m6638.19487,5827.30394l1.16,0l1,0.12l-0.35,0l-1.81,-0.12z" fill="#f0e4e4" id="svg_501"/>
    <path stroke="null" d="m6638.19487,5827.18394l1.16,0l1,0.12l-0.35,0l-1.81,-0.12z" fill="#f0e4e4" id="svg_500"/>
    <path stroke="null" d="m6638.19487,5827.06394l1.16,0l1,0.12l-0.35,0l-1.81,-0.12z" fill="#f0e4e4" id="svg_499"/>
    <path stroke="null" d="m6638.19487,5826.94394l1.16,0l1,0.12l-0.35,0l-1.81,-0.12z" fill="#f0e4e4" id="svg_498"/>
    <path stroke="null" d="m6638.19487,5826.19394l1.16,-0.05l1,0.16l-0.35,0l-1.81,-0.11z" fill="#f0e4e4" id="svg_497"/>
    <path stroke="null" d="m6638.19487,5825.98394l1.16,-0.05l1,0.16l-0.35,0l-1.81,-0.11z" fill="#f0e4e4" id="svg_496"/>
    <path stroke="null" d="m6645.32487,5796.48394a6.84,6.84 0 0 0 0.4,3.12a3.71,3.71 0 0 1 -0.15,3a1,1 0 0 0 0.88,-0.22a3.41,3.41 0 0 0 0.64,-0.75a2,2 0 0 0 0.39,-0.78a3.09,3.09 0 0 0 -0.2,-1.32a17,17 0 0 1 -0.42,-2.33c-0.06,-0.48 0,-1.86 -0.54,-2s-0.9,0.88 -1,1.28z" opacity="0.1" id="svg_495"/>
    <path stroke="null" d="m6645.39487,5796.45394a6.84,6.84 0 0 0 0.4,3.12a3.71,3.71 0 0 1 -0.15,3a1,1 0 0 0 0.88,-0.22a3.41,3.41 0 0 0 0.64,-0.75a2,2 0 0 0 0.39,-0.78a3.09,3.09 0 0 0 -0.2,-1.32a17,17 0 0 1 -0.42,-2.33c-0.06,-0.48 0,-1.86 -0.54,-2s-0.9,0.87 -1,1.28z" fill="#72351c" id="svg_494"/>
    <path stroke="null" d="m6644.17487,5797.19394c0.24,0.25 0.29,0.62 0.49,0.9a1.77,1.77 0 0 0 1.4,0.56a0.79,0.79 0 0 1 0.41,0.09c0.22,0.14 0.23,0.46 0.37,0.68a0.8,0.8 0 0 0 1.17,0a1.93,1.93 0 0 0 0.45,-1.23a7.7,7.7 0 0 0 0,-1.49a2.28,2.28 0 0 0 -0.63,-1.52a2.66,2.66 0 0 0 -1.11,-0.48a3.29,3.29 0 0 0 -1.71,-0.13a3.08,3.08 0 0 0 -0.78,0.39q-0.51,0.33 -1,0.67c-0.37,0.26 -1.07,0.78 -0.39,1.06c0.43,0.2 0.97,0.11 1.33,0.5z" opacity="0.1" id="svg_493"/>
    <path stroke="null" d="m6644.24487,5797.15394c0.24,0.25 0.29,0.62 0.49,0.9a1.77,1.77 0 0 0 1.4,0.56a0.79,0.79 0 0 1 0.41,0.09c0.22,0.14 0.23,0.46 0.37,0.68a0.8,0.8 0 0 0 1.17,0a1.93,1.93 0 0 0 0.45,-1.23a7.7,7.7 0 0 0 0,-1.49a2.28,2.28 0 0 0 -0.63,-1.52a2.66,2.66 0 0 0 -1.11,-0.48a3.29,3.29 0 0 0 -1.71,-0.13a3.08,3.08 0 0 0 -0.78,0.39q-0.51,0.33 -1,0.67c-0.37,0.26 -1.07,0.78 -0.39,1.06c0.43,0.2 1,0.12 1.33,0.5z" fill="#72351c" id="svg_492"/>
    <path stroke="null" d="m6646.08487,5820.76394l1.16,0l1,0.1l-0.33,0l-1.83,-0.1z" fill="#f0e4e4" id="svg_491"/>
    <path stroke="null" d="m6646.08487,5821.00394l1.16,0l1,0.1l-0.33,0l-1.83,-0.1z" fill="#f0e4e4" id="svg_490"/>
    <path stroke="null" d="m6646.08487,5821.25394l1.16,0l1,0.1l-0.33,0l-1.83,-0.1z" fill="#f0e4e4" id="svg_489"/>
    <path stroke="null" d="m6646.08487,5821.49394l1.16,0l1,0.1l-0.33,0l-1.83,-0.1z" fill="#f0e4e4" id="svg_488"/>
    <path stroke="null" d="m6645.58487,5834.76394l1.16,0l1,0.1l-0.35,0l-1.81,-0.1z" fill="#f0e4e4" id="svg_487"/>
    <path stroke="null" d="m6645.58487,5835.01394l1.16,0l1,0.1l-0.35,0l-1.81,-0.1z" fill="#f0e4e4" id="svg_486"/>
    <path stroke="null" d="m6645.58487,5835.25394l1.16,0l1,0.1l-0.35,0l-1.81,-0.1z" fill="#f0e4e4" id="svg_485"/>
    <path stroke="null" d="m6645.58487,5835.49394l1.16,0l1,0.1l-0.35,0l-1.81,-0.1z" fill="#f0e4e4" id="svg_484"/>
   </g>
  </g>
 </g>
</svg>
